<svg width="72" height="72" viewBox="0 0 72 72" fill="none" xmlns="http://www.w3.org/2000/svg">
<path d="M4 20C4 11.1634 11.1634 4 20 4H52C60.8366 4 68 11.1634 68 20V52C68 60.8366 60.8366 68 52 68H20C11.1634 68 4 60.8366 4 52V20Z" fill="#4F0599"/>
<path fill-rule="evenodd" clip-rule="evenodd" d="M32.0526 17C33.1572 17 34.0526 17.8954 34.0526 19V32.0526C34.0526 33.1572 33.1572 34.0526 32.0526 34.0526H19C17.8954 34.0526 17 33.1572 17 32.0526V19C17 17.8954 17.8954 17 19 17H32.0526ZM32.0526 19H19V32.0526H32.0526V19ZM22.7301 21.6202C22.6724 21.1229 22.2497 20.7368 21.7368 20.7368C21.1846 20.7368 20.7368 21.1846 20.7368 21.7368V29.3158L20.7436 29.4324C20.8013 29.9297 21.224 30.3158 21.7368 30.3158C22.2891 30.3158 22.7368 29.8681 22.7368 29.3158V21.7368L22.7301 21.6202ZM25.5263 20.7368C26.0392 20.7368 26.4618 21.1229 26.5196 21.6202L26.5263 21.7368V29.3158C26.5263 29.8681 26.0786 30.3158 25.5263 30.3158C25.0135 30.3158 24.5908 29.9297 24.533 29.4324L24.5263 29.3158V21.7368C24.5263 21.1846 24.974 20.7368 25.5263 20.7368ZM30.3089 21.6202C30.2512 21.1229 29.8285 20.7368 29.3157 20.7368C28.7634 20.7368 28.3157 21.1845 28.3157 21.7368V29.3158L28.3224 29.4324C28.3802 29.9297 28.8028 30.3158 29.3157 30.3158C29.868 30.3158 30.3157 29.868 30.3157 29.3158V21.7368L30.3089 21.6202Z" fill="white"/>
<path fill-rule="evenodd" clip-rule="evenodd" d="M32.0526 37.9473C33.1572 37.9473 34.0526 38.8427 34.0526 39.9473V52.9999C34.0526 54.1045 33.1572 54.9999 32.0526 54.9999H19C17.8954 54.9999 17 54.1045 17 52.9999V39.9473C17 38.8427 17.8954 37.9473 19 37.9473H32.0526ZM32.0526 39.9473H19V52.9999H32.0526V39.9473ZM22.7301 42.5675C22.6724 42.0701 22.2497 41.6841 21.7368 41.6841C21.1846 41.6841 20.7368 42.1318 20.7368 42.6841V50.2631L20.7436 50.3797C20.8013 50.877 21.224 51.2631 21.7368 51.2631C22.2891 51.2631 22.7368 50.8153 22.7368 50.2631V42.6841L22.7301 42.5675ZM25.5263 41.6841C26.0392 41.6841 26.4618 42.0701 26.5196 42.5675L26.5263 42.6841V50.2631C26.5263 50.8153 26.0786 51.2631 25.5263 51.2631C25.0135 51.2631 24.5908 50.877 24.533 50.3797L24.5263 50.2631V42.6841C24.5263 42.1318 24.974 41.6841 25.5263 41.6841ZM30.3089 42.5675C30.2512 42.0701 29.8285 41.6841 29.3157 41.6841C28.7634 41.6841 28.3157 42.1318 28.3157 42.6841V50.263L28.3224 50.3797C28.3802 50.877 28.8028 51.263 29.3157 51.263C29.868 51.263 30.3157 50.8153 30.3157 50.263V42.6841L30.3089 42.5675Z" fill="white"/>
<path fill-rule="evenodd" clip-rule="evenodd" d="M53.0526 17C54.1572 17 55.0526 17.8954 55.0526 19V32.0526C55.0526 33.1572 54.1572 34.0526 53.0526 34.0526H40C38.8954 34.0526 38 33.1572 38 32.0526V19C38 17.8954 38.8954 17 40 17H53.0526ZM53.0526 19H40V32.0526H53.0526V19ZM43.7301 21.6202C43.6724 21.1229 43.2497 20.7368 42.7368 20.7368C42.1846 20.7368 41.7368 21.1846 41.7368 21.7368V29.3158L41.7436 29.4324C41.8013 29.9297 42.224 30.3158 42.7368 30.3158C43.2891 30.3158 43.7368 29.8681 43.7368 29.3158V21.7368L43.7301 21.6202ZM46.5263 20.7368C47.0391 20.7368 47.4618 21.1229 47.5196 21.6202L47.5263 21.7368V29.3158C47.5263 29.8681 47.0786 30.3158 46.5263 30.3158C46.0135 30.3158 45.5908 29.9297 45.533 29.4324L45.5263 29.3158V21.7368C45.5263 21.1846 45.974 20.7368 46.5263 20.7368ZM51.3089 21.6202C51.2512 21.1229 50.8285 20.7368 50.3157 20.7368C49.7634 20.7368 49.3157 21.1845 49.3157 21.7368V29.3158L49.3224 29.4324C49.3802 29.9297 49.8028 30.3158 50.3157 30.3158C50.868 30.3158 51.3157 29.868 51.3157 29.3158V21.7368L51.3089 21.6202Z" fill="#C893FF"/>
<path fill-rule="evenodd" clip-rule="evenodd" d="M52.9999 37.9473C54.1045 37.9473 54.9999 38.8427 54.9999 39.9473V52.9999C54.9999 54.1045 54.1045 54.9999 52.9999 54.9999H39.9473C38.8427 54.9999 37.9473 54.1045 37.9473 52.9999V39.9473C37.9473 38.8427 38.8427 37.9473 39.9473 37.9473H52.9999ZM52.9999 39.9473H39.9473V52.9999H52.9999V39.9473ZM43.6774 42.5675C43.6196 42.0701 43.1969 41.6841 42.6841 41.6841C42.1318 41.6841 41.6841 42.1318 41.6841 42.6841V50.2631L41.6908 50.3797C41.7486 50.877 42.1713 51.2631 42.6841 51.2631C43.2364 51.2631 43.6841 50.8153 43.6841 50.2631V42.6841L43.6774 42.5675ZM46.4736 41.6841C46.9864 41.6841 47.4091 42.0701 47.4669 42.5675L47.4736 42.6841V50.2631C47.4736 50.8153 47.0259 51.2631 46.4736 51.2631C45.9607 51.2631 45.5381 50.877 45.4803 50.3797L45.4736 50.2631V42.6841C45.4736 42.1318 45.9213 41.6841 46.4736 41.6841ZM51.2562 42.5675C51.1984 42.0701 50.7758 41.6841 50.2629 41.6841C49.7107 41.6841 49.2629 42.1318 49.2629 42.6841V50.263L49.2697 50.3797C49.3274 50.877 49.7501 51.263 50.2629 51.263C50.8152 51.263 51.2629 50.8153 51.2629 50.263V42.6841L51.2562 42.5675Z" fill="white"/>
</svg>
