<svg width="72" height="72" viewBox="0 0 72 72" fill="none" xmlns="http://www.w3.org/2000/svg">
<path d="M4 20C4 11.1634 11.1634 4 20 4H52C60.8366 4 68 11.1634 68 20V52C68 60.8366 60.8366 68 52 68H20C11.1634 68 4 60.8366 4 52V20Z" fill="#4F0599"/>
<path fill-rule="evenodd" clip-rule="evenodd" d="M29.4933 16.8834C29.4355 16.386 29.0128 16 28.5 16C27.9477 16 27.5 16.4477 27.5 17V22H27C24.2386 22 22 24.2386 22 27V27.5H17L16.8834 27.5067C16.386 27.5645 16 27.9872 16 28.5C16 29.0523 16.4477 29.5 17 29.5H22V32.5H17L16.8834 32.5067C16.386 32.5645 16 32.9872 16 33.5C16 34.0523 16.4477 34.5 17 34.5H22V37.5H17L16.8834 37.5067C16.386 37.5645 16 37.9872 16 38.5C16 39.0523 16.4477 39.5 17 39.5H22V42.5H17L16.8834 42.5067C16.386 42.5645 16 42.9872 16 43.5C16 44.0523 16.4477 44.5 17 44.5H22V45C22 47.7614 24.2386 50 27 50H27.5V54.8283L27.5067 54.9449C27.5645 55.4422 27.9872 55.8283 28.5 55.8283C29.0523 55.8283 29.5 55.3806 29.5 54.8283V50H32.5V54.8283L32.5067 54.9449C32.5645 55.4422 32.9872 55.8283 33.5 55.8283C34.0523 55.8283 34.5 55.3806 34.5 54.8283V50H37.5V54.8283L37.5067 54.9449C37.5645 55.4422 37.9872 55.8283 38.5 55.8283C39.0523 55.8283 39.5 55.3806 39.5 54.8283V50H42.5V54.8283L42.5067 54.9449C42.5645 55.4422 42.9872 55.8283 43.5 55.8283C44.0523 55.8283 44.5 55.3806 44.5 54.8283V50H45C47.7614 50 50 47.7614 50 45V44.5H54.8283L54.9449 44.4933C55.4422 44.4355 55.8283 44.0128 55.8283 43.5C55.8283 42.9477 55.3806 42.5 54.8283 42.5H50V39.5H54.8283L54.9449 39.4933C55.4422 39.4355 55.8283 39.0128 55.8283 38.5C55.8283 37.9477 55.3806 37.5 54.8283 37.5H50V34.5H54.8283L54.9449 34.4933C55.4422 34.4355 55.8283 34.0128 55.8283 33.5C55.8283 32.9477 55.3806 32.5 54.8283 32.5H50V29.5H54.8283L54.9449 29.4933C55.4422 29.4355 55.8283 29.0128 55.8283 28.5C55.8283 27.9477 55.3806 27.5 54.8283 27.5H50V27C50 24.2386 47.7614 22 45 22H44.5V17L44.4933 16.8834C44.4355 16.386 44.0128 16 43.5 16C42.9477 16 42.5 16.4477 42.5 17V22H39.5V17L39.4933 16.8834C39.4355 16.386 39.0128 16 38.5 16C37.9477 16 37.5 16.4477 37.5 17V22H34.5V17L34.4933 16.8834C34.4355 16.386 34.0128 16 33.5 16C32.9477 16 32.5 16.4477 32.5 17V22H29.5V17L29.4933 16.8834ZM48 28.5V27C48 25.4023 46.7511 24.0963 45.1763 24.0051L45 24H27C25.4023 24 24.0963 25.2489 24.0051 26.8237L24 27V45C24 46.5977 25.2489 47.9037 26.8237 47.9949L27 48H28.5H33.5H38.5H43.5H45C46.5977 48 47.9037 46.7511 47.9949 45.1763L48 45V43.5V38.5V33.5V28.5Z" fill="white"/>
<path d="M25.5214 35.9191C25.5214 35.2324 25.6747 34.6191 25.9814 34.0791C26.2947 33.5324 26.718 33.1091 27.2514 32.8091C27.7914 32.5024 28.3947 32.3491 29.0614 32.3491C29.8414 32.3491 30.5247 32.5491 31.1114 32.9491C31.698 33.3491 32.108 33.9024 32.3414 34.6091H30.7314C30.5714 34.2758 30.3447 34.0258 30.0514 33.8591C29.7647 33.6924 29.4314 33.6091 29.0514 33.6091C28.6447 33.6091 28.2814 33.7058 27.9614 33.8991C27.648 34.0858 27.4014 34.3524 27.2214 34.6991C27.048 35.0458 26.9614 35.4524 26.9614 35.9191C26.9614 36.3791 27.048 36.7858 27.2214 37.1391C27.4014 37.4858 27.648 37.7558 27.9614 37.9491C28.2814 38.1358 28.6447 38.2291 29.0514 38.2291C29.4314 38.2291 29.7647 38.1458 30.0514 37.9791C30.3447 37.8058 30.5714 37.5524 30.7314 37.2191H32.3414C32.108 37.9324 31.698 38.4891 31.1114 38.8891C30.5314 39.2824 29.848 39.4791 29.0614 39.4791C28.3947 39.4791 27.7914 39.3291 27.2514 39.0291C26.718 38.7224 26.2947 38.2991 25.9814 37.7591C25.6747 37.2191 25.5214 36.6058 25.5214 35.9191Z" fill="#C893FF"/>
<path d="M36.7771 39.4891C36.1238 39.4891 35.5238 39.3358 34.9771 39.0291C34.4305 38.7224 33.9971 38.2991 33.6771 37.7591C33.3571 37.2124 33.1971 36.5958 33.1971 35.9091C33.1971 35.2291 33.3571 34.6191 33.6771 34.0791C33.9971 33.5324 34.4305 33.1058 34.9771 32.7991C35.5238 32.4924 36.1238 32.3391 36.7771 32.3391C37.4371 32.3391 38.0371 32.4924 38.5771 32.7991C39.1238 33.1058 39.5538 33.5324 39.8671 34.0791C40.1871 34.6191 40.3471 35.2291 40.3471 35.9091C40.3471 36.5958 40.1871 37.2124 39.8671 37.7591C39.5538 38.2991 39.1238 38.7224 38.5771 39.0291C38.0305 39.3358 37.4305 39.4891 36.7771 39.4891ZM36.7771 38.2391C37.1971 38.2391 37.5671 38.1458 37.8871 37.9591C38.2071 37.7658 38.4571 37.4924 38.6371 37.1391C38.8171 36.7858 38.9071 36.3758 38.9071 35.9091C38.9071 35.4424 38.8171 35.0358 38.6371 34.6891C38.4571 34.3358 38.2071 34.0658 37.8871 33.8791C37.5671 33.6924 37.1971 33.5991 36.7771 33.5991C36.3571 33.5991 35.9838 33.6924 35.6571 33.8791C35.3371 34.0658 35.0871 34.3358 34.9071 34.6891C34.7271 35.0358 34.6371 35.4424 34.6371 35.9091C34.6371 36.3758 34.7271 36.7858 34.9071 37.1391C35.0871 37.4924 35.3371 37.7658 35.6571 37.9591C35.9838 38.1458 36.3571 38.2391 36.7771 38.2391Z" fill="#C893FF"/>
<path d="M46.4787 34.5991C46.4787 34.9724 46.3887 35.3224 46.2087 35.6491C46.0354 35.9758 45.7587 36.2391 45.3787 36.4391C45.0054 36.6391 44.532 36.7391 43.9587 36.7391H42.7887V39.4191H41.3887V32.4391H43.9587C44.4987 32.4391 44.9587 32.5324 45.3387 32.7191C45.7187 32.9058 46.002 33.1624 46.1887 33.4891C46.382 33.8158 46.4787 34.1858 46.4787 34.5991ZM43.8987 35.6091C44.2854 35.6091 44.572 35.5224 44.7587 35.3491C44.9454 35.1691 45.0387 34.9191 45.0387 34.5991C45.0387 33.9191 44.6587 33.5791 43.8987 33.5791H42.7887V35.6091H43.8987Z" fill="#C893FF"/>
</svg>
