<svg width="72" height="72" viewBox="0 0 72 72" fill="none" xmlns="http://www.w3.org/2000/svg">
<path d="M4 20C4 11.1634 11.1634 4 20 4H52C60.8366 4 68 11.1634 68 20V52C68 60.8366 60.8366 68 52 68H20C11.1634 68 4 60.8366 4 52V20Z" fill="#4F0599"/>
<path fill-rule="evenodd" clip-rule="evenodd" d="M55.9999 28.7778C55.9999 20.064 48.936 13 40.2221 13C38.6796 13 37.1656 13.2217 35.7147 13.6535L36.2852 15.5704L36.7626 15.4377C37.8823 15.1482 39.0419 15 40.2221 15C47.8314 15 53.9999 21.1685 53.9999 28.7778L53.9932 29.2138C53.9256 31.3886 53.3531 33.4791 52.3317 35.3553L52.2889 35.442L40.2219 56.854L36.8723 50.9075L35.1297 51.8891L39.3509 59.3826L39.4243 59.4953C39.8462 60.0591 40.7333 60.0216 41.0933 59.3828L54.0891 36.3241L54.1399 36.2211L54.1499 36.194L54.3024 35.9041C55.4122 33.7156 55.9999 31.2882 55.9999 28.7778ZM31.7777 19.3333C26.5617 19.3333 22.3333 23.5618 22.3333 28.7778C22.3333 33.9938 26.5617 38.2222 31.7777 38.2222C36.9937 38.2222 41.2221 33.9938 41.2221 28.7778C41.2221 23.5618 36.9937 19.3333 31.7777 19.3333ZM31.7777 21.3333C35.8891 21.3333 39.2221 24.6663 39.2221 28.7778C39.2221 32.8892 35.8891 36.2222 31.7777 36.2222C27.6662 36.2222 24.3333 32.8892 24.3333 28.7778C24.3333 24.6663 27.6662 21.3333 31.7777 21.3333Z" fill="#C893FF"/>
<path fill-rule="evenodd" clip-rule="evenodd" d="M31.7778 13C23.064 13 16 20.064 16 28.7778C16 31.445 16.6634 34.0188 17.9112 36.3112L30.9065 59.3826C31.2889 60.0614 32.2664 60.0615 32.6489 59.3828L45.6447 36.3241L45.6931 36.227L45.6997 36.2082C46.9119 33.9415 47.5556 31.4051 47.5556 28.7778C47.5556 20.064 40.4916 13 31.7778 13ZM31.7778 15C39.387 15 45.5556 21.1685 45.5556 28.7778L45.5488 29.2139C45.4812 31.3888 44.9086 33.4795 43.887 35.3558L43.845 35.443L31.778 56.853L19.6648 35.3496C18.5787 33.3543 18 31.1089 18 28.7778C18 21.1685 24.1685 15 31.7778 15Z" fill="white"/>
<path d="M30.2447 25V32H29V25H30.2447Z" fill="#C893FF"/>
<path d="M36 27.1662C36 27.5406 35.92 27.8916 35.7599 28.2192C35.6058 28.5468 35.3599 28.8109 35.022 29.0115C34.6901 29.212 34.2692 29.3123 33.7595 29.3123H32.7193V32H31.4745V25H33.7595C34.2396 25 34.6486 25.0936 34.9864 25.2808C35.3243 25.468 35.5762 25.7254 35.7422 26.053C35.9141 26.3806 36 26.7517 36 27.1662ZM33.7061 28.1791C34.0499 28.1791 34.3048 28.0922 34.4708 27.9183C34.6367 27.7378 34.7197 27.4871 34.7197 27.1662C34.7197 26.4842 34.3819 26.1433 33.7061 26.1433H32.7193V28.1791H33.7061Z" fill="#C893FF"/>
</svg>
