<svg fill="none" height="72" viewBox="0 0 72 72" width="72" xmlns="http://www.w3.org/2000/svg"><path d="m4 20c0-8.8366 7.1634-16 16-16h32c8.8366 0 16 7.1634 16 16v32c0 8.8366-7.1634 16-16 16h-32c-8.8366 0-16-7.1634-16-16z" fill="#4f0599"/><g clip-rule="evenodd" fill-rule="evenodd"><path d="m36 17-.8152.0057c-7.6555.1085-13.8343 1.7452-14.9903 4.3716-.0986.1298-.1664.2929-.1875.4895l-.007.1332v.2857 26.987l.0058.1673c.2697 3.412 7.1131 5.6327 15.5894 5.7012l.4048.0017c8.842 0 16-2.3241 16-5.8702v-26.987-.2857c0-.2534-.0733-.4593-.1919-.6168-1.19-2.7225-7.7736-4.3832-15.8081-4.3832zm13.976 5.1555c-.1855-.5278-1.4442-1.3102-3.6441-1.9387-2.6987-.7711-6.387-1.2168-10.3319-1.2168s-7.6332.4457-10.3319 1.2168c-2.1825.6235-3.4386 1.3985-3.6395 1.9261.1925.5053 1.3531 1.2376 3.3688 1.8465l.2707.0795c2.6987.7711 6.387 1.2168 10.3319 1.2168 3.8829 0 7.5183-.4317 10.2079-1.1818 2.2648-.6316 3.5881-1.435 3.7681-1.9484zm-27.976 2.8459c2.7209 1.6281 7.949 2.57 14 2.57l.8152-.0057c5.7033-.0808 10.587-1.0098 13.1848-2.5643v24.2712c0 1.8028-6.066 3.8023-13.6149 3.8685l-.3851.0016c-7.6133 0-13.8518-1.977-13.998-3.8214l-.0027-.0882z" fill="#fff"/><path d="m31.9388 35.3084 2.3088-4.1976c.5323-.9679 1.7484-1.321 2.7162-.7886.3324.1827.6059.4562.7886.7886l2.3088 4.1976c.5323.9679.1792 2.184-.7886 2.7163-.2953.1624-.6269.2476-.9639.2476h-4.6174c-1.1046 0-2-.8955-2-2 0-.337.0851-.6686.2475-.9639zm4.0612-3.2337-2.3087 4.1977h4.6174zm-6 7.9248h2c1.6569 0 3 1.3432 3 3v2c0 1.6569-1.3431 3-3 3h-2c-1.6569 0-3-1.3431-3-3v-2c0-1.6568 1.3431-3 3-3zm2 2h-2c-.5523 0-1 .4478-1 1v2c0 .5523.4477 1 1 1h2c.5523 0 1-.4477 1-1v-2c0-.5522-.4477-1-1-1zm9-2c2.2091 0 4 1.7909 4 4 0 2.2092-1.7909 4-4 4s-4-1.7908-4-4c0-2.2091 1.7909-4 4-4zm0 2c-1.1046 0-2 .8955-2 2 0 1.1046.8954 2 2 2s2-.8954 2-2c0-1.1045-.8954-2-2-2z" fill="#c893ff"/></g></svg>