<svg width="72" height="72" viewBox="0 0 72 72" fill="none" xmlns="http://www.w3.org/2000/svg">
<path d="M4 20C4 11.1634 11.1634 4 20 4H52C60.8366 4 68 11.1634 68 20V52C68 60.8366 60.8366 68 52 68H20C11.1634 68 4 60.8366 4 52V20Z" fill="#4F0599"/>
<path d="M35.2629 27.3243C35.636 26.9172 36.2686 26.8897 36.6757 27.2629C37.0515 27.6073 37.1039 28.1728 36.8162 28.578L36.7372 28.6757L25.7372 40.6757C25.364 41.0828 24.7314 41.1104 24.3243 40.7372C23.9485 40.3927 23.8961 39.8272 24.1838 39.422L24.2629 39.3243L35.2629 27.3243Z" fill="#C893FF"/>
<path d="M35.9688 11C36.4816 11 36.9043 11.386 36.962 11.8834L36.9688 12L36.968 19.532L37.0277 19.5438C39.2122 20.0148 40.8659 21.9133 40.9641 24.2145L40.9688 24.4314C40.9688 27.1928 38.7302 29.4314 35.9688 29.4314C33.2073 29.4314 30.9688 27.1928 30.9688 24.4314C30.9688 23.8791 31.4165 23.4314 31.9688 23.4314C32.521 23.4314 32.9688 23.8791 32.9688 24.4314C32.9688 26.0883 34.3119 27.4314 35.9688 27.4314C37.6256 27.4314 38.9688 26.0883 38.9688 24.4314C38.9688 22.7746 37.6256 21.4314 35.9688 21.4314C35.4559 21.4314 35.0332 21.0454 34.9755 20.548L34.9688 20.4314V12C34.9688 11.4477 35.4165 11 35.9688 11Z" fill="white"/>
<path d="M35.3541 26.2366C35.7433 25.9073 36.3108 25.9268 36.6764 26.2634L36.7634 26.3541L47.7634 39.3541C48.1202 39.7757 48.0676 40.4067 47.646 40.7634C47.2568 41.0927 46.6892 41.0732 46.3236 40.7367L46.2366 40.646L35.2366 27.646C34.8799 27.2244 34.9325 26.5934 35.3541 26.2366Z" fill="#C893FF"/>
<path fill-rule="evenodd" clip-rule="evenodd" d="M47 39C48.1046 39 49 39.8954 49 41V57C49 58.1046 48.1046 59 47 59H25C23.8954 59 23 58.1046 23 57V41C23 39.8954 23.8954 39 25 39H47ZM47 41H25V57H47V41ZM42.9933 43.8834C42.9355 43.386 42.5128 43 42 43C41.4477 43 41 43.4477 41 44V54L41.0067 54.1166C41.0645 54.614 41.4872 55 42 55C42.5523 55 43 54.5523 43 54V44L42.9933 43.8834ZM36 43C36.5128 43 36.9355 43.386 36.9933 43.8834L37 44V54C37 54.5523 36.5523 55 36 55C35.4872 55 35.0645 54.614 35.0067 54.1166L35 54V44C35 43.4477 35.4477 43 36 43ZM30.9933 43.8834C30.9355 43.386 30.5128 43 30 43C29.4477 43 29 43.4477 29 44V54L29.0067 54.1166C29.0645 54.614 29.4872 55 30 55C30.5523 55 31 54.5523 31 54V44L30.9933 43.8834Z" fill="white"/>
</svg>
