<svg width="72" height="72" viewBox="0 0 72 72" fill="none" xmlns="http://www.w3.org/2000/svg">
<path d="M4 20C4 11.1634 11.1634 4 20 4H52C60.8366 4 68 11.1634 68 20V52C68 60.8366 60.8366 68 52 68H20C11.1634 68 4 60.8366 4 52V20Z" fill="#4F0599"/>
<path d="M23.3727 36.8246C22.8296 36.4522 22.7957 35.6775 23.2708 35.2548L23.3727 35.1752L29.9344 30.6752C30.3899 30.3629 31.0123 30.4789 31.3247 30.9343C31.613 31.3548 31.5364 31.9175 31.1646 32.2472L31.0656 32.3246L25.7051 36.001L31.0656 39.6752C31.486 39.9635 31.6172 40.5161 31.3892 40.9576L31.3247 41.0655C31.0364 41.4859 30.4838 41.6171 30.0423 41.3891L29.9344 41.3246L23.3727 36.8246Z" fill="white"/>
<path d="M48.6303 36.8247C49.1736 36.4523 49.2075 35.6774 48.7322 35.2547L48.6303 35.1751L42.0654 30.6751C41.6098 30.3628 40.9874 30.479 40.6752 30.9345C40.3869 31.355 40.4637 31.9177 40.8356 32.2474L40.9346 32.3247L46.2965 36.0004L40.9346 39.6751C40.5141 39.9633 40.3828 40.5158 40.6107 40.9574L40.6752 41.0653C40.9634 41.4858 41.5159 41.6171 41.9575 41.3892L42.0654 41.3247L48.6303 36.8247Z" fill="white"/>
<path d="M38.0422 25.7124C38.2009 25.1834 38.7584 24.8833 39.2874 25.0419C39.7786 25.1893 40.0725 25.6805 39.9849 26.1735L39.9578 26.2871L33.9578 46.2871C33.7991 46.8161 33.2417 47.1163 32.7127 46.9576C32.2215 46.8102 31.9275 46.319 32.0151 45.8261L32.0422 45.7124L38.0422 25.7124Z" fill="#C893FF"/>
<path fill-rule="evenodd" clip-rule="evenodd" d="M56 36C56 24.9543 47.0457 16 36 16C24.9543 16 16 24.9543 16 36C16 47.0457 24.9543 56 36 56C47.0457 56 56 47.0457 56 36ZM18.0273 36C18.0273 26.0589 26.0862 18 36.0273 18C45.9684 18 54.0273 26.0589 54.0273 36C54.0273 45.9411 45.9684 54 36.0273 54C26.0862 54 18.0273 45.9411 18.0273 36Z" fill="white"/>
</svg>
