<svg width="72" height="72" viewBox="0 0 72 72" fill="none" xmlns="http://www.w3.org/2000/svg">
<path d="M4 20C4 11.1634 11.1634 4 20 4H52C60.8366 4 68 11.1634 68 20V52C68 60.8366 60.8366 68 52 68H20C11.1634 68 4 60.8366 4 52V20Z" fill="#4F0599"/>
<path fill-rule="evenodd" clip-rule="evenodd" d="M36 17L35.1848 17.0057C27.5293 17.1142 21.3505 18.7509 20.1945 21.3773C20.0959 21.5071 20.0281 21.6702 20.007 21.8668L20 22V22.2857V49.2727L20.0058 49.44C20.2755 52.852 27.1189 55.0727 35.5952 55.1412L36 55.1429C44.842 55.1429 52 52.8188 52 49.2727V22.2857V22C52 21.7466 51.9267 21.5407 51.8081 21.3832C50.6181 18.6607 44.0345 17 36 17ZM49.976 22.1555C49.7905 21.6277 48.5318 20.8453 46.3319 20.2168C43.6332 19.4457 39.9449 19 36 19C32.0551 19 28.3668 19.4457 25.6681 20.2168C23.4856 20.8403 22.2295 21.6153 22.0286 22.1429C22.2211 22.6482 23.3817 23.3805 25.3974 23.9894L25.6681 24.0689C28.3668 24.84 32.0551 25.2857 36 25.2857C39.8829 25.2857 43.5183 24.854 46.2079 24.1039C48.4727 23.4723 49.796 22.6689 49.976 22.1555ZM22 25.0014C24.7209 26.6295 29.949 27.5714 36 27.5714L36.8152 27.5657C42.5185 27.4849 47.4022 26.5559 50 25.0014V49.2726C50 51.0754 43.934 53.0749 36.3851 53.1411L36 53.1427C28.3867 53.1427 22.1482 51.1657 22.002 49.3213L21.9993 49.2331L22 25.0014Z" fill="white"/>
<path fill-rule="evenodd" clip-rule="evenodd" d="M28.5126 35.5983C28.4987 35.606 28.4851 35.6141 28.4716 35.6225C28.195 35.7944 28 36.099 28 36.4715V36.4717V44.5435C28 44.9105 28.201 45.248 28.5237 45.4228L35.6071 49.2596C35.7832 49.355 35.9693 49.3915 36.1479 49.3795C36.244 49.3733 36.3411 49.3527 36.4365 49.3162C36.4832 49.2984 36.5286 49.2772 36.5721 49.2528L43.643 45.4227C43.9657 45.2479 44.1667 44.9104 44.1667 44.5434V36.625C44.1667 36.5912 44.1651 36.5579 44.162 36.5253C44.1978 36.1537 44.0291 35.765 43.6569 35.5557L36.5736 31.5713C36.2677 31.3992 35.894 31.4001 35.589 31.5736L28.5126 35.5983ZM37.0833 46.7008V41.2838L42.166 38.355V43.948L37.0833 46.7008ZM41.144 36.4362L36.085 33.5912L31.022 36.4712L36.08 39.3482L41.144 36.4362ZM35.083 41.1911L30 38.2151V43.9481L35.083 46.7011V41.1911Z" fill="#C893FF"/>
</svg>
