<?xml version="1.0" encoding="UTF-8"?>
<svg version="1.1" viewBox="0 0 610 610" xmlns="http://www.w3.org/2000/svg" xmlns:xlink="http://www.w3.org/1999/xlink">
 <g>
  <path fill="#1d60b0" d="m400.95 158.66c46.031 0 89.297 17.922 121.85 50.461 24.562 24.57 40.762 55.254 47.246 88.613 23.328-15.641 38.414-42.227 38.414-71.598 0-47.504-38.648-86.152-86.152-86.152-3.6172 0-7.2031 0.22656-10.77 0.67188v-0.67188c0-65.32-53.141-118.46-118.46-118.46-38.398 0-73.598 18.172-95.871 49.062-10.715-3.9766-21.895-5.9844-33.359-5.9844-45.664 0-84.809 31.992-94.535 75.789-43.594 4.2266-77.773 41.066-77.773 85.75 0 47.504 38.648 86.152 86.152 86.152h52.023c4.1875-38.91 21.355-75.02 49.504-103.17 32.531-32.543 75.766-50.461 121.73-50.461z"/>
  <path fill="#206bc4" d="m598.99 483.24-71.086-70.992c15.465-24.043 23.809-52.008 23.809-81.281 0-40.277-15.617-78.078-44.152-106.62-28.43-28.43-66.34-44.152-106.61-44.152-40.168 0-78.078 15.723-106.51 44.152-28.539 28.539-44.262 66.34-44.262 106.62s15.723 78.184 44.262 106.61c28.43 28.539 66.34 44.152 106.51 44.152 29.277 0 57.25-8.3477 81.293-23.816l71.09 71.09c6.0312 6.0312 14.215 9.4766 22.832 9.4766 8.6172 0 16.691-3.4453 22.832-9.4766 6.1367-6.1367 9.4766-14.215 9.4766-22.832-0.003906-8.7188-3.3398-16.797-9.4805-22.934zm-121.8-76.141c-20.352 20.355-47.383 31.555-76.246 31.555-28.754 0-55.785-11.199-76.137-31.555-42-42-42-110.28 0-152.28 20.352-20.355 47.383-31.555 76.137-31.555 28.863 0 55.891 11.199 76.246 31.555 42.004 42.004 42.004 110.28 0 152.28z"/>
 </g>
</svg>
